<svg width="88" height="24" viewBox="0 0 88 24" fill="none" xmlns="http://www.w3.org/2000/svg">
<g id="Frame 1437257016">
<g id="Group 1437256357">
<g id="FRAME">
<path id="Vector" d="M84.0002 5.58187H77.6598C76.3283 5.58187 75.2505 6.69122 75.2505 7.99074C75.2505 9.32196 76.3283 10.3679 77.6598 10.3679H83.4613V13.7594H77.7549C76.8039 13.7594 75.9796 13.6009 75.2505 13.3156V15.4709C75.2505 17.3727 76.3283 18.5771 78.1987 18.5771H84.0002V22.0002H78.1036C73.919 22.0002 71.8267 19.1159 71.8267 15.9464V7.99074C71.8267 4.37743 74.3945 2.19043 78.389 2.19043H84.0002V5.58187Z" fill="black"/>
<path id="Vector_2" d="M63.4596 2.19043C67.0736 2.19043 69.483 4.18726 69.483 8.02244V22.0002H66.0275V8.08583C66.0275 6.75461 64.9179 5.61356 63.523 5.61356C62.0964 5.61356 60.9552 6.75461 60.9552 8.08583V22.0002H57.5631V8.08583C57.5631 6.75461 56.4218 5.61356 55.0269 5.61356C53.6003 5.61356 52.4908 6.75461 52.4908 8.08583V22.0002H49.067V5.61356H47.4185V2.19043H49.1621C50.018 2.19043 50.8423 2.53908 51.4446 3.1096C52.3957 2.50739 53.632 2.19043 55.0586 2.19043C56.5803 2.19043 58.1337 2.76095 59.275 3.80691C60.3845 2.76095 61.9379 2.19043 63.4596 2.19043Z" fill="black"/>
<path id="Vector_3" d="M39.3221 2C42.9678 2.0317 45.9161 4.97939 45.9161 8.6244V21.9683H42.5239V14.9318H36.1836V22H32.7598V8.6244C32.7598 4.97939 35.708 2.0317 39.3221 2ZM36.1836 11.5087H42.5239V8.6244C42.5239 6.84944 41.0974 5.45483 39.3221 5.45483C37.6102 5.45483 36.1836 6.84944 36.1836 8.6244V11.5087Z" fill="black"/>
<path id="Vector_4" d="M30.4518 8.05369C30.4201 9.54339 29.9128 11.0331 28.8667 12.1107C29.8811 13.0933 30.4518 14.4879 30.4518 16.1995V21.9998H27.0597V16.1995C27.0597 14.9 25.9818 13.8223 24.682 13.8223H22.2727V21.9998H18.8489V5.64482H17.3589V2.22168H23.9529C27.9156 2.22168 30.4518 4.44038 30.4518 8.05369ZM22.2727 10.3992H24.682C26.0135 10.3992 27.0597 9.32152 27.0597 7.9903C27.0597 6.69077 25.9818 5.61312 24.682 5.61312H22.2727V10.3992Z" fill="black"/>
<path id="Vector_5" d="M16.1735 5.58187H9.83315C8.50167 5.58187 7.4238 6.69122 7.4238 7.99074C7.4238 9.32196 8.50167 10.3679 9.83315 10.3679H16.1735V13.7594H9.92825C8.9772 13.7594 8.15295 13.6009 7.4238 13.3156V22.0002H4V7.99074C4 4.37743 6.56785 2.19043 10.5623 2.19043H16.1735V5.58187Z" fill="black"/>
</g>
</g>
</g>
</svg>
